<svg width="131" height="128" viewBox="0 0 131 128" fill="none" xmlns="http://www.w3.org/2000/svg">
<path d="M14.0859 0.242188H15.5508L20.9766 9.96875L26.5664 0.242188H27.9141L21.6328 11.1406V17H20.4023V11.1406L14.0859 0.242188Z" fill="white"/>
<path fill-rule="evenodd" clip-rule="evenodd" d="M3.22649 24L9 14L14.7735 24H10L10 109H19V118H104V113.226L114 119L104 124.774V120H19V128H0V109H8L8 24H3.22649ZM8 110H1V127H18V120H9V119H8L8 110ZM18 118V110H10V118H18Z" fill="white"/>
<path d="M115.676 104.242L122.273 112.621L115.676 121H117.141L123 113.547L128.859 121H130.324L123.738 112.621L130.324 104.242H128.859L123 111.695L117.141 104.242H115.676Z" fill="white"/>
</svg>
