<svg width="412" height="408" viewBox="0 0 412 408" fill="none" xmlns="http://www.w3.org/2000/svg">
<path fill-rule="evenodd" clip-rule="evenodd" d="M0 0H412V408H0V0ZM205.102 101.103V90.4839H193.574V101.103H205.102ZM192.676 101.103V90.4839H180.699V101.103H192.676ZM179.801 101.103V90.4839H167.824V101.103H179.801ZM166.926 101.103V90.4839H155.398V101.103H166.926ZM153.602 101.103V90.4839H142.074V101.103H153.602ZM141.176 102.897V113.516H129.199V102.897H141.176ZM128.301 102.897V113.516H116.324V102.897H128.301ZM116.324 101.103V90.4839H128.301V101.103H116.324ZM129.199 101.103V90.4839H141.176V101.103H129.199ZM115.426 101.103H103.898V90.4839H115.426V101.103ZM103.898 102.897H115.426V113.516H103.898V102.897ZM142.074 102.897H153.602V113.516H142.074V102.897ZM155.398 102.897V113.516H166.926V102.897H155.398ZM167.824 102.897V113.516H179.801V102.897H167.824ZM180.699 102.897H192.676V113.516H180.699V102.897ZM193.574 102.897V113.516H205.102V102.897H193.574ZM0.898256 113.516V102.897H12.4259V113.516H0.898256ZM13.3241 90.4839V101.103H25.3009V90.4839H13.3241ZM26.1991 90.4839V101.103H38.1759V90.4839H26.1991ZM39.0741 90.4839V101.103H50.6017V90.4839H39.0741ZM50.6017 113.516V102.897H39.0741V113.516H50.6017ZM38.1759 113.516V102.897H26.1991V113.516H38.1759ZM25.3009 113.516V102.897H13.3241V113.516H25.3009ZM63.9259 102.897H52.3983V113.516H63.9259V102.897ZM52.3983 101.103H63.9259V90.4839H52.3983V101.103ZM64.8241 90.4839V101.103H76.8009V90.4839H64.8241ZM77.6991 90.4839V101.103H89.6759V90.4839H77.6991ZM90.5741 90.4839V101.103H102.102V90.4839H90.5741ZM64.8241 113.516V102.897H76.8009V113.516H64.8241ZM77.6991 113.516V102.897H89.6759V113.516H77.6991ZM90.5741 113.516V102.897H102.102V113.516H90.5741ZM0.898256 101.103H12.4259V90.4839H0.898256V101.103ZM12.4259 39.0352H0.898256V50.5513H12.4259V39.0352ZM12.4259 38.1378H0.898256V26.173H12.4259V38.1378ZM13.3241 39.0352V50.5513H25.3009V39.0352H13.3241ZM25.3009 38.1378H13.3241V26.173H25.3009V38.1378ZM26.1991 39.0352V50.5513H38.1759V39.0352H26.1991ZM38.1759 38.1378H26.1991V26.173H38.1759V38.1378ZM39.0741 39.0352V50.5513H50.6017V39.0352H39.0741ZM50.6017 38.1378H39.0741V26.173H50.6017V38.1378ZM50.6017 25.2757V13.3109H39.0741V25.2757H50.6017ZM38.1759 25.2757V13.3109H26.1991V25.2757H38.1759ZM25.3009 25.2757V13.3109H13.3241V25.2757H25.3009ZM12.4259 25.2757H0.898256V13.3109H12.4259V25.2757ZM12.4259 12.4135H0.898256V0.897361H12.4259V12.4135ZM13.3241 12.4135H25.3009V0.897361H13.3241V12.4135ZM26.1991 0.897361V12.4135H38.1759V0.897361H26.1991ZM39.0741 0.897361V12.4135H50.6017V0.897361H39.0741ZM0.898256 89.5865H12.4259V77.6217H0.898256V89.5865ZM13.3241 89.5865H25.3009V77.6217H13.3241V89.5865ZM26.1991 89.5865H38.1759V77.6217H26.1991V89.5865ZM39.0741 89.5865H50.6017V77.6217H39.0741V89.5865ZM50.6017 64.7595V76.7243H39.0741V64.7595H50.6017ZM38.1759 64.7595V76.7243H26.1991V64.7595H38.1759ZM25.3009 64.7595V76.7243H13.3241V64.7595H25.3009ZM0.898256 76.7243H12.4259V64.7595H0.898256V76.7243ZM0.898256 63.8622H12.4259V52.346H0.898256V63.8622ZM25.3009 63.8622H13.3241V52.346H25.3009V63.8622ZM26.1991 63.8622V52.346H38.1759V63.8622H26.1991ZM39.0741 63.8622V52.346H50.6017V63.8622H39.0741ZM52.3983 89.5865H63.9259V77.6217H52.3983V89.5865ZM64.8241 89.5865H76.8009V77.6217H64.8241V89.5865ZM77.6991 89.5865H89.6759V77.6217H77.6991V89.5865ZM90.5741 89.5865H102.102V77.6217H90.5741V89.5865ZM102.102 64.7595V76.7243H90.5741V64.7595H102.102ZM89.6759 64.7595V76.7243H77.6991V64.7595H89.6759ZM76.8009 64.7595V76.7243H64.8241V64.7595H76.8009ZM52.3983 76.7243H63.9259V64.7595H52.3983V76.7243ZM52.3983 63.8622H63.9259V52.346H52.3983V63.8622ZM76.8009 63.8622H64.8241V52.346H76.8009V63.8622ZM77.6991 63.8622V52.346H89.6759V63.8622H77.6991ZM90.5741 63.8622V52.346H102.102V63.8622H90.5741ZM52.3983 39.0352H63.9259V50.5513H52.3983V39.0352ZM52.3983 38.1378H63.9259V26.173H52.3983V38.1378ZM64.8241 50.5513V39.0352H76.8009V50.5513H64.8241ZM64.8241 38.1378H76.8009V26.173H64.8241V38.1378ZM77.6991 50.5513V39.0352H89.6759V50.5513H77.6991ZM77.6991 38.1378H89.6759V26.173H77.6991V38.1378ZM90.5741 50.5513V39.0352H102.102V50.5513H90.5741ZM90.5741 38.1378H102.102V26.173H90.5741V38.1378ZM102.102 13.3109V25.2757H90.5741V13.3109H102.102ZM89.6759 13.3109V25.2757H77.6991V13.3109H89.6759ZM76.8009 13.3109V25.2757H64.8241V13.3109H76.8009ZM52.3983 25.2757H63.9259V13.3109H52.3983V25.2757ZM52.3983 12.4135H63.9259V0.897361H52.3983V12.4135ZM76.8009 12.4135H64.8241V0.897361H76.8009V12.4135ZM77.6991 12.4135V0.897361H89.6759V12.4135H77.6991ZM90.5741 12.4135V0.897361H102.102V12.4135H90.5741ZM0.898256 140.138H12.4259V151.654H0.898256V140.138ZM0.898256 139.24H12.4259V127.276H0.898256V139.24ZM13.3241 151.654V140.138H25.3009V151.654H13.3241ZM13.3241 139.24H25.3009V127.276H13.3241V139.24ZM26.1991 151.654V140.138H38.1759V151.654H26.1991ZM26.1991 139.24H38.1759V127.276H26.1991V139.24ZM39.0741 151.654V140.138H50.6017V151.654H39.0741ZM39.0741 139.24H50.6017V127.276H39.0741V139.24ZM50.6017 114.413V126.378H39.0741V114.413H50.6017ZM38.1759 114.413V126.378H26.1991V114.413H38.1759ZM25.3009 114.413V126.378H13.3241V114.413H25.3009ZM0.898256 126.378H12.4259V114.413H0.898256V126.378ZM12.4259 191.587H0.898256V203.103H12.4259V191.587ZM12.4259 190.689H0.898256V178.724H12.4259V190.689ZM13.3241 191.587V203.103H25.3009V191.587H13.3241ZM25.3009 190.689H13.3241V178.724H25.3009V190.689ZM26.1991 191.587V203.103H38.1759V191.587H26.1991ZM38.1759 190.689H26.1991V178.724H38.1759V190.689ZM39.0741 191.587V203.103H50.6017V191.587H39.0741ZM50.6017 190.689H39.0741V178.724H50.6017V190.689ZM50.6017 177.827V165.862H39.0741V177.827H50.6017ZM38.1759 177.827V165.862H26.1991V177.827H38.1759ZM25.3009 177.827V165.862H13.3241V177.827H25.3009ZM12.4259 177.827H0.898256V165.862H12.4259V177.827ZM12.4259 164.965H0.898256V153.449H12.4259V164.965ZM13.3241 164.965H25.3009V153.449H13.3241V164.965ZM26.1991 153.449V164.965H38.1759V153.449H26.1991ZM39.0741 153.449V164.965H50.6017V153.449H39.0741ZM63.9259 191.587H52.3983V203.103H63.9259V191.587ZM63.9259 190.689H52.3983V178.724H63.9259V190.689ZM64.8241 191.587V203.103H76.8009V191.587H64.8241ZM76.8009 190.689H64.8241V178.724H76.8009V190.689ZM77.6991 191.587V203.103H89.6759V191.587H77.6991ZM89.6759 190.689H77.6991V178.724H89.6759V190.689ZM90.5741 191.587V203.103H102.102V191.587H90.5741ZM102.102 190.689H90.5741V178.724H102.102V190.689ZM102.102 177.827V165.862H90.5741V177.827H102.102ZM89.6759 177.827V165.862H77.6991V177.827H89.6759ZM76.8009 177.827V165.862H64.8241V177.827H76.8009ZM63.9259 177.827H52.3983V165.862H63.9259V177.827ZM63.9259 164.965H52.3983V153.449H63.9259V164.965ZM64.8241 164.965H76.8009V153.449H64.8241V164.965ZM77.6991 153.449V164.965H89.6759V153.449H77.6991ZM90.5741 153.449V164.965H102.102V153.449H90.5741ZM63.9259 140.138H52.3983V151.654H63.9259V140.138ZM63.9259 139.24H52.3983V127.276H63.9259V139.24ZM64.8241 140.138V151.654H76.8009V140.138H64.8241ZM76.8009 139.24H64.8241V127.276H76.8009V139.24ZM77.6991 140.138V151.654H89.6759V140.138H77.6991ZM89.6759 139.24H77.6991V127.276H89.6759V139.24ZM90.5741 140.138V151.654H102.102V140.138H90.5741ZM102.102 139.24H90.5741V127.276H102.102V139.24ZM102.102 126.378V114.413H90.5741V126.378H102.102ZM89.6759 126.378V114.413H77.6991V126.378H89.6759ZM76.8009 126.378V114.413H64.8241V126.378H76.8009ZM63.9259 126.378H52.3983V114.413H63.9259V126.378ZM103.898 140.138H115.426V151.654H103.898V140.138ZM103.898 139.24H115.426V127.276H103.898V139.24ZM116.324 151.654V140.138H128.301V151.654H116.324ZM116.324 139.24H128.301V127.276H116.324V139.24ZM129.199 151.654V140.138H141.176V151.654H129.199ZM129.199 139.24H141.176V127.276H129.199V139.24ZM142.074 151.654V140.138H153.602V151.654H142.074ZM142.074 139.24H153.602V127.276H142.074V139.24ZM153.602 114.413V126.378H142.074V114.413H153.602ZM141.176 114.413V126.378H129.199V114.413H141.176ZM128.301 114.413V126.378H116.324V114.413H128.301ZM103.898 126.378H115.426V114.413H103.898V126.378ZM115.426 191.587H103.898V203.103H115.426V191.587ZM115.426 190.689H103.898V178.724H115.426V190.689ZM116.324 191.587V203.103H128.301V191.587H116.324ZM128.301 190.689H116.324V178.724H128.301V190.689ZM129.199 191.587V203.103H141.176V191.587H129.199ZM141.176 190.689H129.199V178.724H141.176V190.689ZM142.074 191.587V203.103H153.602V191.587H142.074ZM153.602 190.689H142.074V178.724H153.602V190.689ZM153.602 177.827V165.862H142.074V177.827H153.602ZM141.176 177.827V165.862H129.199V177.827H141.176ZM128.301 177.827V165.862H116.324V177.827H128.301ZM115.426 177.827H103.898V165.862H115.426V177.827ZM115.426 164.965H103.898V153.449H115.426V164.965ZM116.324 164.965H128.301V153.449H116.324V164.965ZM129.199 153.449V164.965H141.176V153.449H129.199ZM142.074 153.449V164.965H153.602V153.449H142.074ZM166.926 191.587H155.398V203.103H166.926V191.587ZM166.926 190.689H155.398V178.724H166.926V190.689ZM167.824 191.587V203.103H179.801V191.587H167.824ZM179.801 190.689H167.824V178.724H179.801V190.689ZM180.699 191.587V203.103H192.676V191.587H180.699ZM192.676 190.689H180.699V178.724H192.676V190.689ZM193.574 191.587V203.103H205.102V191.587H193.574ZM205.102 190.689H193.574V178.724H205.102V190.689ZM205.102 177.827V165.862H193.574V177.827H205.102ZM192.676 177.827V165.862H180.699V177.827H192.676ZM179.801 177.827V165.862H167.824V177.827H179.801ZM166.926 177.827H155.398V165.862H166.926V177.827ZM166.926 164.965H155.398V153.449H166.926V164.965ZM167.824 164.965H179.801V153.449H167.824V164.965ZM180.699 153.449V164.965H192.676V153.449H180.699ZM193.574 153.449V164.965H205.102V153.449H193.574ZM166.926 140.138H155.398V151.654H166.926V140.138ZM166.926 139.24H155.398V127.276H166.926V139.24ZM167.824 140.138V151.654H179.801V140.138H167.824ZM179.801 139.24H167.824V127.276H179.801V139.24ZM180.699 140.138V151.654H192.676V140.138H180.699ZM192.676 139.24H180.699V127.276H192.676V139.24ZM193.574 140.138V151.654H205.102V140.138H193.574ZM205.102 139.24H193.574V127.276H205.102V139.24ZM205.102 126.378V114.413H193.574V126.378H205.102ZM192.676 126.378V114.413H180.699V126.378H192.676ZM179.801 126.378V114.413H167.824V126.378H179.801ZM166.926 126.378H155.398V114.413H166.926V126.378ZM103.898 39.0352H115.426V50.5513H103.898V39.0352ZM103.898 38.1378H115.426V26.173H103.898V38.1378ZM116.324 50.5513V39.0352H128.301V50.5513H116.324ZM116.324 38.1378H128.301V26.173H116.324V38.1378ZM129.199 50.5513V39.0352H141.176V50.5513H129.199ZM129.199 38.1378H141.176V26.173H129.199V38.1378ZM142.074 50.5513V39.0352H153.602V50.5513H142.074ZM142.074 38.1378H153.602V26.173H142.074V38.1378ZM153.602 13.3109V25.2757H142.074V13.3109H153.602ZM141.176 13.3109V25.2757H129.199V13.3109H141.176ZM128.301 13.3109V25.2757H116.324V13.3109H128.301ZM103.898 25.2757H115.426V13.3109H103.898V25.2757ZM103.898 12.4135H115.426V0.897361H103.898V12.4135ZM128.301 12.4135H116.324V0.897361H128.301V12.4135ZM129.199 12.4135V0.897361H141.176V12.4135H129.199ZM142.074 12.4135V0.897361H153.602V12.4135H142.074ZM115.426 89.5865H103.898V77.6217H115.426V89.5865ZM128.301 89.5865H116.324V77.6217H128.301V89.5865ZM141.176 89.5865H129.199V77.6217H141.176V89.5865ZM153.602 89.5865H142.074V77.6217H153.602V89.5865ZM153.602 76.7243V64.7595H142.074V76.7243H153.602ZM141.176 76.7243V64.7595H129.199V76.7243H141.176ZM128.301 76.7243V64.7595H116.324V76.7243H128.301ZM115.426 76.7243H103.898V64.7595H115.426V76.7243ZM115.426 63.8622H103.898V52.346H115.426V63.8622ZM116.324 63.8622H128.301V52.346H116.324V63.8622ZM129.199 52.346V63.8622H141.176V52.346H129.199ZM142.074 52.346V63.8622H153.602V52.346H142.074ZM166.926 89.5865H155.398V77.6217H166.926V89.5865ZM179.801 89.5865H167.824V77.6217H179.801V89.5865ZM192.676 89.5865H180.699V77.6217H192.676V89.5865ZM205.102 89.5865H193.574V77.6217H205.102V89.5865ZM205.102 76.7243V64.7595H193.574V76.7243H205.102ZM192.676 76.7243V64.7595H180.699V76.7243H192.676ZM179.801 76.7243V64.7595H167.824V76.7243H179.801ZM166.926 76.7243H155.398V64.7595H166.926V76.7243ZM166.926 63.8622H155.398V52.346H166.926V63.8622ZM167.824 63.8622H179.801V52.346H167.824V63.8622ZM180.699 52.346V63.8622H192.676V52.346H180.699ZM193.574 52.346V63.8622H205.102V52.346H193.574ZM166.926 39.0352H155.398V50.5513H166.926V39.0352ZM166.926 38.1378H155.398V26.173H166.926V38.1378ZM167.824 39.0352V50.5513H179.801V39.0352H167.824ZM179.801 38.1378H167.824V26.173H179.801V38.1378ZM180.699 39.0352V50.5513H192.676V39.0352H180.699ZM192.676 38.1378H180.699V26.173H192.676V38.1378ZM193.574 39.0352V50.5513H205.102V39.0352H193.574ZM205.102 38.1378H193.574V26.173H205.102V38.1378ZM205.102 25.2757V13.3109H193.574V25.2757H205.102ZM192.676 25.2757V13.3109H180.699V25.2757H192.676ZM179.801 25.2757V13.3109H167.824V25.2757H179.801ZM166.926 25.2757H155.398V13.3109H166.926V25.2757ZM166.926 12.4135H155.398V0.897361H166.926V12.4135ZM167.824 12.4135H179.801V0.897361H167.824V12.4135ZM180.699 0.897361V12.4135H192.676V0.897361H180.699ZM193.574 0.897361V12.4135H205.102V0.897361H193.574ZM205.102 294.484V305.103H193.574V294.484H205.102ZM192.676 294.484V305.103H180.699V294.484H192.676ZM179.801 294.484V305.103H167.824V294.484H179.801ZM166.926 294.484V305.103H155.398V294.484H166.926ZM153.602 294.484V305.103H142.074V294.484H153.602ZM141.176 317.516V306.897H129.199V317.516H141.176ZM128.301 317.516V306.897H116.324V317.516H128.301ZM116.324 294.484V305.103H128.301V294.484H116.324ZM129.199 294.484V305.103H141.176V294.484H129.199ZM103.898 305.103H115.426V294.484H103.898V305.103ZM115.426 306.897H103.898V317.516H115.426V306.897ZM153.602 306.897H142.074V317.516H153.602V306.897ZM155.398 317.516V306.897H166.926V317.516H155.398ZM167.824 317.516V306.897H179.801V317.516H167.824ZM192.676 306.897H180.699V317.516H192.676V306.897ZM193.574 317.516V306.897H205.102V317.516H193.574ZM0.898256 306.897V317.516H12.4259V306.897H0.898256ZM13.3241 305.103V294.484H25.3009V305.103H13.3241ZM26.1991 305.103V294.484H38.1759V305.103H26.1991ZM39.0741 305.103V294.484H50.6017V305.103H39.0741ZM50.6017 306.897V317.516H39.0741V306.897H50.6017ZM38.1759 306.897V317.516H26.1991V306.897H38.1759ZM25.3009 306.897V317.516H13.3241V306.897H25.3009ZM52.3983 306.897H63.9259V317.516H52.3983V306.897ZM63.9259 305.103H52.3983V294.484H63.9259V305.103ZM64.8241 305.103V294.484H76.8009V305.103H64.8241ZM77.6991 305.103V294.484H89.6759V305.103H77.6991ZM90.5741 305.103V294.484H102.102V305.103H90.5741ZM64.8241 306.897V317.516H76.8009V306.897H64.8241ZM77.6991 306.897V317.516H89.6759V306.897H77.6991ZM90.5741 306.897V317.516H102.102V306.897H90.5741ZM12.4259 305.103H0.898256V294.484H12.4259V305.103ZM0.898256 243.035H12.4259V254.551H0.898256V243.035ZM0.898256 242.138H12.4259V230.173H0.898256V242.138ZM13.3241 254.551V243.035H25.3009V254.551H13.3241ZM13.3241 242.138H25.3009V230.173H13.3241V242.138ZM26.1991 254.551V243.035H38.1759V254.551H26.1991ZM26.1991 242.138H38.1759V230.173H26.1991V242.138ZM39.0741 254.551V243.035H50.6017V254.551H39.0741ZM39.0741 242.138H50.6017V230.173H39.0741V242.138ZM50.6017 217.311V229.276H39.0741V217.311H50.6017ZM38.1759 217.311V229.276H26.1991V217.311H38.1759ZM25.3009 217.311V229.276H13.3241V217.311H25.3009ZM0.898256 229.276H12.4259V217.311H0.898256V229.276ZM0.898256 216.413H12.4259V204.897H0.898256V216.413ZM25.3009 216.413H13.3241V204.897H25.3009V216.413ZM26.1991 216.413V204.897H38.1759V216.413H26.1991ZM39.0741 216.413V204.897H50.6017V216.413H39.0741ZM12.4259 293.587H0.898256V281.622H12.4259V293.587ZM25.3009 293.587H13.3241V281.622H25.3009V293.587ZM38.1759 293.587H26.1991V281.622H38.1759V293.587ZM50.6017 293.587H39.0741V281.622H50.6017V293.587ZM50.6017 280.724V268.76H39.0741V280.724H50.6017ZM38.1759 280.724V268.76H26.1991V280.724H38.1759ZM25.3009 280.724V268.76H13.3241V280.724H25.3009ZM12.4259 280.724H0.898256V268.76H12.4259V280.724ZM12.4259 267.862H0.898256V256.346H12.4259V267.862ZM13.3241 267.862H25.3009V256.346H13.3241V267.862ZM26.1991 256.346V267.862H38.1759V256.346H26.1991ZM39.0741 256.346V267.862H50.6017V256.346H39.0741ZM63.9259 293.587H52.3983V281.622H63.9259V293.587ZM76.8009 293.587H64.8241V281.622H76.8009V293.587ZM89.6759 293.587H77.6991V281.622H89.6759V293.587ZM102.102 293.587H90.5741V281.622H102.102V293.587ZM102.102 280.724V268.76H90.5741V280.724H102.102ZM89.6759 280.724V268.76H77.6991V280.724H89.6759ZM76.8009 280.724V268.76H64.8241V280.724H76.8009ZM63.9259 280.724H52.3983V268.76H63.9259V280.724ZM63.9259 267.862H52.3983V256.346H63.9259V267.862ZM64.8241 267.862H76.8009V256.346H64.8241V267.862ZM77.6991 256.346V267.862H89.6759V256.346H77.6991ZM90.5741 256.346V267.862H102.102V256.346H90.5741ZM63.9259 243.035H52.3983V254.551H63.9259V243.035ZM63.9259 242.138H52.3983V230.173H63.9259V242.138ZM64.8241 243.035V254.551H76.8009V243.035H64.8241ZM76.8009 242.138H64.8241V230.173H76.8009V242.138ZM77.6991 243.035V254.551H89.6759V243.035H77.6991ZM89.6759 242.138H77.6991V230.173H89.6759V242.138ZM90.5741 243.035V254.551H102.102V243.035H90.5741ZM102.102 242.138H90.5741V230.173H102.102V242.138ZM102.102 229.276V217.311H90.5741V229.276H102.102ZM89.6759 229.276V217.311H77.6991V229.276H89.6759ZM76.8009 229.276V217.311H64.8241V229.276H76.8009ZM63.9259 229.276H52.3983V217.311H63.9259V229.276ZM63.9259 216.413H52.3983V204.897H63.9259V216.413ZM64.8241 216.413H76.8009V204.897H64.8241V216.413ZM77.6991 204.897V216.413H89.6759V204.897H77.6991ZM90.5741 204.897V216.413H102.102V204.897H90.5741ZM12.4259 344.138H0.898256V355.654H12.4259V344.138ZM12.4259 343.24H0.898256V331.276H12.4259V343.24ZM13.3241 344.138V355.654H25.3009V344.138H13.3241ZM25.3009 343.24H13.3241V331.276H25.3009V343.24ZM26.1991 344.138V355.654H38.1759V344.138H26.1991ZM38.1759 343.24H26.1991V331.276H38.1759V343.24ZM39.0741 344.138V355.654H50.6017V344.138H39.0741ZM50.6017 343.24H39.0741V331.276H50.6017V343.24ZM50.6017 330.378V318.413H39.0741V330.378H50.6017ZM38.1759 330.378V318.413H26.1991V330.378H38.1759ZM25.3009 330.378V318.413H13.3241V330.378H25.3009ZM12.4259 330.378H0.898256V318.413H12.4259V330.378ZM0.898256 395.587H12.4259V407.103H0.898256V395.587ZM0.898256 394.689H12.4259V382.724H0.898256V394.689ZM13.3241 407.103V395.587H25.3009V407.103H13.3241ZM13.3241 394.689H25.3009V382.724H13.3241V394.689ZM26.1991 407.103V395.587H38.1759V407.103H26.1991ZM26.1991 394.689H38.1759V382.724H26.1991V394.689ZM39.0741 407.103V395.587H50.6017V407.103H39.0741ZM39.0741 394.689H50.6017V382.724H39.0741V394.689ZM50.6017 369.862V381.827H39.0741V369.862H50.6017ZM38.1759 369.862V381.827H26.1991V369.862H38.1759ZM25.3009 369.862V381.827H13.3241V369.862H25.3009ZM0.898256 381.827H12.4259V369.862H0.898256V381.827ZM0.898256 368.965H12.4259V357.449H0.898256V368.965ZM25.3009 368.965H13.3241V357.449H25.3009V368.965ZM26.1991 368.965V357.449H38.1759V368.965H26.1991ZM39.0741 368.965V357.449H50.6017V368.965H39.0741ZM52.3983 395.587H63.9259V407.103H52.3983V395.587ZM52.3983 394.689H63.9259V382.724H52.3983V394.689ZM64.8241 407.103V395.587H76.8009V407.103H64.8241ZM64.8241 394.689H76.8009V382.724H64.8241V394.689ZM77.6991 407.103V395.587H89.6759V407.103H77.6991ZM77.6991 394.689H89.6759V382.724H77.6991V394.689ZM90.5741 407.103V395.587H102.102V407.103H90.5741ZM90.5741 394.689H102.102V382.724H90.5741V394.689ZM102.102 369.862V381.827H90.5741V369.862H102.102ZM89.6759 369.862V381.827H77.6991V369.862H89.6759ZM76.8009 369.862V381.827H64.8241V369.862H76.8009ZM52.3983 381.827H63.9259V369.862H52.3983V381.827ZM52.3983 368.965H63.9259V357.449H52.3983V368.965ZM76.8009 368.965H64.8241V357.449H76.8009V368.965ZM77.6991 368.965V357.449H89.6759V368.965H77.6991ZM90.5741 368.965V357.449H102.102V368.965H90.5741ZM52.3983 344.138H63.9259V355.654H52.3983V344.138ZM52.3983 343.24H63.9259V331.276H52.3983V343.24ZM64.8241 355.654V344.138H76.8009V355.654H64.8241ZM64.8241 343.24H76.8009V331.276H64.8241V343.24ZM77.6991 355.654V344.138H89.6759V355.654H77.6991ZM77.6991 343.24H89.6759V331.276H77.6991V343.24ZM90.5741 355.654V344.138H102.102V355.654H90.5741ZM90.5741 343.24H102.102V331.276H90.5741V343.24ZM102.102 318.413V330.378H90.5741V318.413H102.102ZM89.6759 318.413V330.378H77.6991V318.413H89.6759ZM76.8009 318.413V330.378H64.8241V318.413H76.8009ZM52.3983 330.378H63.9259V318.413H52.3983V330.378ZM115.426 344.138H103.898V355.654H115.426V344.138ZM115.426 343.24H103.898V331.276H115.426V343.24ZM116.324 344.138V355.654H128.301V344.138H116.324ZM128.301 343.24H116.324V331.276H128.301V343.24ZM129.199 344.138V355.654H141.176V344.138H129.199ZM141.176 343.24H129.199V331.276H141.176V343.24ZM142.074 344.138V355.654H153.602V344.138H142.074ZM153.602 343.24H142.074V331.276H153.602V343.24ZM153.602 330.378V318.413H142.074V330.378H153.602ZM141.176 330.378V318.413H129.199V330.378H141.176ZM128.301 330.378V318.413H116.324V330.378H128.301ZM115.426 330.378H103.898V318.413H115.426V330.378ZM103.898 395.587H115.426V407.103H103.898V395.587ZM103.898 394.689H115.426V382.724H103.898V394.689ZM116.324 407.103V395.587H128.301V407.103H116.324ZM116.324 394.689H128.301V382.724H116.324V394.689ZM129.199 407.103V395.587H141.176V407.103H129.199ZM129.199 394.689H141.176V382.724H129.199V394.689ZM142.074 407.103V395.587H153.602V407.103H142.074ZM142.074 394.689H153.602V382.724H142.074V394.689ZM153.602 369.862V381.827H142.074V369.862H153.602ZM141.176 369.862V381.827H129.199V369.862H141.176ZM128.301 369.862V381.827H116.324V369.862H128.301ZM103.898 381.827H115.426V369.862H103.898V381.827ZM103.898 368.965H115.426V357.449H103.898V368.965ZM128.301 368.965H116.324V357.449H128.301V368.965ZM129.199 368.965V357.449H141.176V368.965H129.199ZM142.074 368.965V357.449H153.602V368.965H142.074ZM155.398 395.587H166.926V407.103H155.398V395.587ZM155.398 394.689H166.926V382.724H155.398V394.689ZM167.824 407.103V395.587H179.801V407.103H167.824ZM167.824 394.689H179.801V382.724H167.824V394.689ZM180.699 407.103V395.587H192.676V407.103H180.699ZM180.699 394.689H192.676V382.724H180.699V394.689ZM193.574 407.103V395.587H205.102V407.103H193.574ZM193.574 394.689H205.102V382.724H193.574V394.689ZM205.102 369.862V381.827H193.574V369.862H205.102ZM192.676 369.862V381.827H180.699V369.862H192.676ZM179.801 369.862V381.827H167.824V369.862H179.801ZM155.398 381.827H166.926V369.862H155.398V381.827ZM155.398 368.965H166.926V357.449H155.398V368.965ZM179.801 368.965H167.824V357.449H179.801V368.965ZM180.699 368.965V357.449H192.676V368.965H180.699ZM193.574 368.965V357.449H205.102V368.965H193.574ZM155.398 344.138H166.926V355.654H155.398V344.138ZM155.398 343.24H166.926V331.276H155.398V343.24ZM167.824 355.654V344.138H179.801V355.654H167.824ZM167.824 343.24H179.801V331.276H167.824V343.24ZM180.699 355.654V344.138H192.676V355.654H180.699ZM180.699 343.24H192.676V331.276H180.699V343.24ZM193.574 355.654V344.138H205.102V355.654H193.574ZM193.574 343.24H205.102V331.276H193.574V343.24ZM205.102 318.413V330.378H193.574V318.413H205.102ZM192.676 318.413V330.378H180.699V318.413H192.676ZM179.801 318.413V330.378H167.824V318.413H179.801ZM155.398 330.378H166.926V318.413H155.398V330.378ZM115.426 243.035H103.898V254.551H115.426V243.035ZM115.426 242.138H103.898V230.173H115.426V242.138ZM116.324 243.035V254.551H128.301V243.035H116.324ZM128.301 242.138H116.324V230.173H128.301V242.138ZM129.199 243.035V254.551H141.176V243.035H129.199ZM141.176 242.138H129.199V230.173H141.176V242.138ZM142.074 243.035V254.551H153.602V243.035H142.074ZM153.602 242.138H142.074V230.173H153.602V242.138ZM153.602 229.276V217.311H142.074V229.276H153.602ZM141.176 229.276V217.311H129.199V229.276H141.176ZM128.301 229.276V217.311H116.324V229.276H128.301ZM115.426 229.276H103.898V217.311H115.426V229.276ZM115.426 216.413H103.898V204.897H115.426V216.413ZM116.324 216.413H128.301V204.897H116.324V216.413ZM129.199 204.897V216.413H141.176V204.897H129.199ZM142.074 204.897V216.413H153.602V204.897H142.074ZM103.898 293.587H115.426V281.622H103.898V293.587ZM116.324 293.587H128.301V281.622H116.324V293.587ZM129.199 293.587H141.176V281.622H129.199V293.587ZM142.074 293.587H153.602V281.622H142.074V293.587ZM153.602 268.76V280.724H142.074V268.76H153.602ZM141.176 268.76V280.724H129.199V268.76H141.176ZM128.301 268.76V280.724H116.324V268.76H128.301ZM103.898 280.724H115.426V268.76H103.898V280.724ZM103.898 267.862H115.426V256.346H103.898V267.862ZM128.301 267.862H116.324V256.346H128.301V267.862ZM129.199 267.862V256.346H141.176V267.862H129.199ZM142.074 267.862V256.346H153.602V267.862H142.074ZM155.398 293.587H166.926V281.622H155.398V293.587ZM167.824 293.587H179.801V281.622H167.824V293.587ZM180.699 293.587H192.676V281.622H180.699V293.587ZM193.574 293.587H205.102V281.622H193.574V293.587ZM205.102 268.76V280.724H193.574V268.76H205.102ZM192.676 268.76V280.724H180.699V268.76H192.676ZM179.801 268.76V280.724H167.824V268.76H179.801ZM155.398 280.724H166.926V268.76H155.398V280.724ZM155.398 267.862H166.926V256.346H155.398V267.862ZM179.801 267.862H167.824V256.346H179.801V267.862ZM180.699 267.862V256.346H192.676V267.862H180.699ZM193.574 267.862V256.346H205.102V267.862H193.574ZM155.398 243.035H166.926V254.551H155.398V243.035ZM155.398 242.138H166.926V230.173H155.398V242.138ZM167.824 254.551V243.035H179.801V254.551H167.824ZM167.824 242.138H179.801V230.173H167.824V242.138ZM180.699 254.551V243.035H192.676V254.551H180.699ZM180.699 242.138H192.676V230.173H180.699V242.138ZM193.574 254.551V243.035H205.102V254.551H193.574ZM193.574 242.138H205.102V230.173H193.574V242.138ZM205.102 217.311V229.276H193.574V217.311H205.102ZM192.676 217.311V229.276H180.699V217.311H192.676ZM179.801 217.311V229.276H167.824V217.311H179.801ZM155.398 229.276H166.926V217.311H155.398V229.276ZM155.398 216.413H166.926V204.897H155.398V216.413ZM179.801 216.413H167.824V204.897H179.801V216.413ZM180.699 216.413V204.897H192.676V216.413H180.699ZM193.574 216.413V204.897H205.102V216.413H193.574ZM411.102 294.484V305.103H399.574V294.484H411.102ZM398.676 294.484V305.103H386.699V294.484H398.676ZM385.801 294.484V305.103H373.824V294.484H385.801ZM372.926 294.484V305.103H361.398V294.484H372.926ZM359.602 294.484V305.103H348.074V294.484H359.602ZM347.176 317.516V306.897H335.199V317.516H347.176ZM334.301 317.516V306.897H322.324V317.516H334.301ZM322.324 294.484V305.103H334.301V294.484H322.324ZM335.199 294.484V305.103H347.176V294.484H335.199ZM309.898 305.103H321.426V294.484H309.898V305.103ZM321.426 306.897H309.898V317.516H321.426V306.897ZM359.602 306.897H348.074V317.516H359.602V306.897ZM361.398 317.516V306.897H372.926V317.516H361.398ZM373.824 317.516V306.897H385.801V317.516H373.824ZM398.676 306.897H386.699V317.516H398.676V306.897ZM399.574 317.516V306.897H411.102V317.516H399.574ZM206.898 306.897V317.516H218.426V306.897H206.898ZM219.324 305.103V294.484H231.301V305.103H219.324ZM232.199 305.103V294.484H244.176V305.103H232.199ZM245.074 305.103V294.484H256.602V305.103H245.074ZM256.602 306.897V317.516H245.074V306.897H256.602ZM244.176 306.897V317.516H232.199V306.897H244.176ZM231.301 306.897V317.516H219.324V306.897H231.301ZM258.398 306.897H269.926V317.516H258.398V306.897ZM269.926 305.103H258.398V294.484H269.926V305.103ZM270.824 305.103V294.484H282.801V305.103H270.824ZM283.699 305.103V294.484H295.676V305.103H283.699ZM296.574 305.103V294.484H308.102V305.103H296.574ZM270.824 306.897V317.516H282.801V306.897H270.824ZM283.699 306.897V317.516H295.676V306.897H283.699ZM296.574 306.897V317.516H308.102V306.897H296.574ZM218.426 305.103H206.898V294.484H218.426V305.103ZM206.898 243.035H218.426V254.551H206.898V243.035ZM206.898 242.138H218.426V230.173H206.898V242.138ZM219.324 254.551V243.035H231.301V254.551H219.324ZM219.324 242.138H231.301V230.173H219.324V242.138ZM232.199 254.551V243.035H244.176V254.551H232.199ZM232.199 242.138H244.176V230.173H232.199V242.138ZM245.074 254.551V243.035H256.602V254.551H245.074ZM245.074 242.138H256.602V230.173H245.074V242.138ZM256.602 217.311V229.276H245.074V217.311H256.602ZM244.176 217.311V229.276H232.199V217.311H244.176ZM231.301 217.311V229.276H219.324V217.311H231.301ZM206.898 229.276H218.426V217.311H206.898V229.276ZM206.898 216.413H218.426V204.897H206.898V216.413ZM231.301 216.413H219.324V204.897H231.301V216.413ZM232.199 216.413V204.897H244.176V216.413H232.199ZM245.074 216.413V204.897H256.602V216.413H245.074ZM218.426 293.587H206.898V281.622H218.426V293.587ZM231.301 293.587H219.324V281.622H231.301V293.587ZM244.176 293.587H232.199V281.622H244.176V293.587ZM256.602 293.587H245.074V281.622H256.602V293.587ZM256.602 280.724V268.76H245.074V280.724H256.602ZM244.176 280.724V268.76H232.199V280.724H244.176ZM231.301 280.724V268.76H219.324V280.724H231.301ZM218.426 280.724H206.898V268.76H218.426V280.724ZM218.426 267.862H206.898V256.346H218.426V267.862ZM219.324 267.862H231.301V256.346H219.324V267.862ZM232.199 256.346V267.862H244.176V256.346H232.199ZM245.074 256.346V267.862H256.602V256.346H245.074ZM269.926 293.587H258.398V281.622H269.926V293.587ZM282.801 293.587H270.824V281.622H282.801V293.587ZM295.676 293.587H283.699V281.622H295.676V293.587ZM308.102 293.587H296.574V281.622H308.102V293.587ZM308.102 280.724V268.76H296.574V280.724H308.102ZM295.676 280.724V268.76H283.699V280.724H295.676ZM282.801 280.724V268.76H270.824V280.724H282.801ZM269.926 280.724H258.398V268.76H269.926V280.724ZM269.926 267.862H258.398V256.346H269.926V267.862ZM270.824 267.862H282.801V256.346H270.824V267.862ZM283.699 256.346V267.862H295.676V256.346H283.699ZM296.574 256.346V267.862H308.102V256.346H296.574ZM269.926 243.035H258.398V254.551H269.926V243.035ZM269.926 242.138H258.398V230.173H269.926V242.138ZM270.824 243.035V254.551H282.801V243.035H270.824ZM282.801 242.138H270.824V230.173H282.801V242.138ZM283.699 243.035V254.551H295.676V243.035H283.699ZM295.676 242.138H283.699V230.173H295.676V242.138ZM296.574 243.035V254.551H308.102V243.035H296.574ZM308.102 242.138H296.574V230.173H308.102V242.138ZM308.102 229.276V217.311H296.574V229.276H308.102ZM295.676 229.276V217.311H283.699V229.276H295.676ZM282.801 229.276V217.311H270.824V229.276H282.801ZM269.926 229.276H258.398V217.311H269.926V229.276ZM269.926 216.413H258.398V204.897H269.926V216.413ZM270.824 216.413H282.801V204.897H270.824V216.413ZM283.699 204.897V216.413H295.676V204.897H283.699ZM296.574 204.897V216.413H308.102V204.897H296.574ZM218.426 344.138H206.898V355.654H218.426V344.138ZM218.426 343.24H206.898V331.276H218.426V343.24ZM219.324 344.138V355.654H231.301V344.138H219.324ZM231.301 343.24H219.324V331.276H231.301V343.24ZM232.199 344.138V355.654H244.176V344.138H232.199ZM244.176 343.24H232.199V331.276H244.176V343.24ZM245.074 344.138V355.654H256.602V344.138H245.074ZM256.602 343.24H245.074V331.276H256.602V343.24ZM256.602 330.378V318.413H245.074V330.378H256.602ZM244.176 330.378V318.413H232.199V330.378H244.176ZM231.301 330.378V318.413H219.324V330.378H231.301ZM218.426 330.378H206.898V318.413H218.426V330.378ZM206.898 395.587H218.426V407.103H206.898V395.587ZM206.898 394.689H218.426V382.724H206.898V394.689ZM219.324 407.103V395.587H231.301V407.103H219.324ZM219.324 394.689H231.301V382.724H219.324V394.689ZM232.199 407.103V395.587H244.176V407.103H232.199ZM232.199 394.689H244.176V382.724H232.199V394.689ZM245.074 407.103V395.587H256.602V407.103H245.074ZM245.074 394.689H256.602V382.724H245.074V394.689ZM256.602 369.862V381.827H245.074V369.862H256.602ZM244.176 369.862V381.827H232.199V369.862H244.176ZM231.301 369.862V381.827H219.324V369.862H231.301ZM206.898 381.827H218.426V369.862H206.898V381.827ZM206.898 368.965H218.426V357.449H206.898V368.965ZM231.301 368.965H219.324V357.449H231.301V368.965ZM232.199 368.965V357.449H244.176V368.965H232.199ZM245.074 368.965V357.449H256.602V368.965H245.074ZM258.398 395.587H269.926V407.103H258.398V395.587ZM258.398 394.689H269.926V382.724H258.398V394.689ZM270.824 407.103V395.587H282.801V407.103H270.824ZM270.824 394.689H282.801V382.724H270.824V394.689ZM283.699 407.103V395.587H295.676V407.103H283.699ZM283.699 394.689H295.676V382.724H283.699V394.689ZM296.574 407.103V395.587H308.102V407.103H296.574ZM296.574 394.689H308.102V382.724H296.574V394.689ZM308.102 369.862V381.827H296.574V369.862H308.102ZM295.676 369.862V381.827H283.699V369.862H295.676ZM282.801 369.862V381.827H270.824V369.862H282.801ZM258.398 381.827H269.926V369.862H258.398V381.827ZM258.398 368.965H269.926V357.449H258.398V368.965ZM282.801 368.965H270.824V357.449H282.801V368.965ZM283.699 368.965V357.449H295.676V368.965H283.699ZM296.574 368.965V357.449H308.102V368.965H296.574ZM258.398 344.138H269.926V355.654H258.398V344.138ZM258.398 343.24H269.926V331.276H258.398V343.24ZM270.824 355.654V344.138H282.801V355.654H270.824ZM270.824 343.24H282.801V331.276H270.824V343.24ZM283.699 355.654V344.138H295.676V355.654H283.699ZM283.699 343.24H295.676V331.276H283.699V343.24ZM296.574 355.654V344.138H308.102V355.654H296.574ZM296.574 343.24H308.102V331.276H296.574V343.24ZM308.102 318.413V330.378H296.574V318.413H308.102ZM295.676 318.413V330.378H283.699V318.413H295.676ZM282.801 318.413V330.378H270.824V318.413H282.801ZM258.398 330.378H269.926V318.413H258.398V330.378ZM321.426 344.138H309.898V355.654H321.426V344.138ZM321.426 343.24H309.898V331.276H321.426V343.24ZM322.324 344.138V355.654H334.301V344.138H322.324ZM334.301 343.24H322.324V331.276H334.301V343.24ZM335.199 344.138V355.654H347.176V344.138H335.199ZM347.176 343.24H335.199V331.276H347.176V343.24ZM348.074 344.138V355.654H359.602V344.138H348.074ZM359.602 343.24H348.074V331.276H359.602V343.24ZM359.602 330.378V318.413H348.074V330.378H359.602ZM347.176 330.378V318.413H335.199V330.378H347.176ZM334.301 330.378V318.413H322.324V330.378H334.301ZM321.426 330.378H309.898V318.413H321.426V330.378ZM309.898 395.587H321.426V407.103H309.898V395.587ZM309.898 394.689H321.426V382.724H309.898V394.689ZM322.324 407.103V395.587H334.301V407.103H322.324ZM322.324 394.689H334.301V382.724H322.324V394.689ZM335.199 407.103V395.587H347.176V407.103H335.199ZM335.199 394.689H347.176V382.724H335.199V394.689ZM348.074 407.103V395.587H359.602V407.103H348.074ZM348.074 394.689H359.602V382.724H348.074V394.689ZM359.602 369.862V381.827H348.074V369.862H359.602ZM347.176 369.862V381.827H335.199V369.862H347.176ZM334.301 369.862V381.827H322.324V369.862H334.301ZM309.898 381.827H321.426V369.862H309.898V381.827ZM309.898 368.965H321.426V357.449H309.898V368.965ZM334.301 368.965H322.324V357.449H334.301V368.965ZM335.199 368.965V357.449H347.176V368.965H335.199ZM348.074 368.965V357.449H359.602V368.965H348.074ZM361.398 395.587H372.926V407.103H361.398V395.587ZM361.398 394.689H372.926V382.724H361.398V394.689ZM373.824 407.103V395.587H385.801V407.103H373.824ZM373.824 394.689H385.801V382.724H373.824V394.689ZM386.699 407.103V395.587H398.676V407.103H386.699ZM386.699 394.689H398.676V382.724H386.699V394.689ZM399.574 407.103V395.587H411.102V407.103H399.574ZM399.574 394.689H411.102V382.724H399.574V394.689ZM411.102 369.862V381.827H399.574V369.862H411.102ZM398.676 369.862V381.827H386.699V369.862H398.676ZM385.801 369.862V381.827H373.824V369.862H385.801ZM361.398 381.827H372.926V369.862H361.398V381.827ZM361.398 368.965H372.926V357.449H361.398V368.965ZM385.801 368.965H373.824V357.449H385.801V368.965ZM386.699 368.965V357.449H398.676V368.965H386.699ZM399.574 368.965V357.449H411.102V368.965H399.574ZM361.398 344.138H372.926V355.654H361.398V344.138ZM361.398 343.24H372.926V331.276H361.398V343.24ZM373.824 355.654V344.138H385.801V355.654H373.824ZM373.824 343.24H385.801V331.276H373.824V343.24ZM386.699 355.654V344.138H398.676V355.654H386.699ZM386.699 343.24H398.676V331.276H386.699V343.24ZM399.574 355.654V344.138H411.102V355.654H399.574ZM399.574 343.24H411.102V331.276H399.574V343.24ZM411.102 318.413V330.378H399.574V318.413H411.102ZM398.676 318.413V330.378H386.699V318.413H398.676ZM385.801 318.413V330.378H373.824V318.413H385.801ZM361.398 330.378H372.926V318.413H361.398V330.378ZM321.426 243.035H309.898V254.551H321.426V243.035ZM321.426 242.138H309.898V230.173H321.426V242.138ZM322.324 243.035V254.551H334.301V243.035H322.324ZM334.301 242.138H322.324V230.173H334.301V242.138ZM335.199 243.035V254.551H347.176V243.035H335.199ZM347.176 242.138H335.199V230.173H347.176V242.138ZM348.074 243.035V254.551H359.602V243.035H348.074ZM359.602 242.138H348.074V230.173H359.602V242.138ZM359.602 229.276V217.311H348.074V229.276H359.602ZM347.176 229.276V217.311H335.199V229.276H347.176ZM334.301 229.276V217.311H322.324V229.276H334.301ZM321.426 229.276H309.898V217.311H321.426V229.276ZM321.426 216.413H309.898V204.897H321.426V216.413ZM322.324 216.413H334.301V204.897H322.324V216.413ZM335.199 204.897V216.413H347.176V204.897H335.199ZM348.074 204.897V216.413H359.602V204.897H348.074ZM309.898 293.587H321.426V281.622H309.898V293.587ZM322.324 293.587H334.301V281.622H322.324V293.587ZM335.199 293.587H347.176V281.622H335.199V293.587ZM348.074 293.587H359.602V281.622H348.074V293.587ZM359.602 268.76V280.724H348.074V268.76H359.602ZM347.176 268.76V280.724H335.199V268.76H347.176ZM334.301 268.76V280.724H322.324V268.76H334.301ZM309.898 280.724H321.426V268.76H309.898V280.724ZM309.898 267.862H321.426V256.346H309.898V267.862ZM334.301 267.862H322.324V256.346H334.301V267.862ZM335.199 267.862V256.346H347.176V267.862H335.199ZM348.074 267.862V256.346H359.602V267.862H348.074ZM361.398 293.587H372.926V281.622H361.398V293.587ZM373.824 293.587H385.801V281.622H373.824V293.587ZM386.699 293.587H398.676V281.622H386.699V293.587ZM399.574 293.587H411.102V281.622H399.574V293.587ZM411.102 268.76V280.724H399.574V268.76H411.102ZM398.676 268.76V280.724H386.699V268.76H398.676ZM385.801 268.76V280.724H373.824V268.76H385.801ZM361.398 280.724H372.926V268.76H361.398V280.724ZM361.398 267.862H372.926V256.346H361.398V267.862ZM385.801 267.862H373.824V256.346H385.801V267.862ZM386.699 267.862V256.346H398.676V267.862H386.699ZM399.574 267.862V256.346H411.102V267.862H399.574ZM361.398 243.035H372.926V254.551H361.398V243.035ZM361.398 242.138H372.926V230.173H361.398V242.138ZM373.824 254.551V243.035H385.801V254.551H373.824ZM373.824 242.138H385.801V230.173H373.824V242.138ZM386.699 254.551V243.035H398.676V254.551H386.699ZM386.699 242.138H398.676V230.173H386.699V242.138ZM399.574 254.551V243.035H411.102V254.551H399.574ZM399.574 242.138H411.102V230.173H399.574V242.138ZM411.102 217.311V229.276H399.574V217.311H411.102ZM398.676 217.311V229.276H386.699V217.311H398.676ZM385.801 217.311V229.276H373.824V217.311H385.801ZM361.398 229.276H372.926V217.311H361.398V229.276ZM361.398 216.413H372.926V204.897H361.398V216.413ZM385.801 216.413H373.824V204.897H385.801V216.413ZM386.699 216.413V204.897H398.676V216.413H386.699ZM399.574 216.413V204.897H411.102V216.413H399.574ZM411.102 90.4839V101.103H399.574V90.4839H411.102ZM398.676 90.4839V101.103H386.699V90.4839H398.676ZM385.801 90.4839V101.103H373.824V90.4839H385.801ZM372.926 90.4839V101.103H361.398V90.4839H372.926ZM359.602 90.4839V101.103H348.074V90.4839H359.602ZM347.176 113.516V102.897H335.199V113.516H347.176ZM334.301 113.516V102.897H322.324V113.516H334.301ZM322.324 90.4839V101.103H334.301V90.4839H322.324ZM335.199 90.4839V101.103H347.176V90.4839H335.199ZM309.898 101.103H321.426V90.4839H309.898V101.103ZM321.426 102.897H309.898V113.516H321.426V102.897ZM359.602 102.897H348.074V113.516H359.602V102.897ZM361.398 113.516V102.897H372.926V113.516H361.398ZM373.824 113.516V102.897H385.801V113.516H373.824ZM398.676 102.897H386.699V113.516H398.676V102.897ZM399.574 113.516V102.897H411.102V113.516H399.574ZM206.898 102.897V113.516H218.426V102.897H206.898ZM219.324 101.103V90.4839H231.301V101.103H219.324ZM232.199 101.103V90.4839H244.176V101.103H232.199ZM245.074 101.103V90.4839H256.602V101.103H245.074ZM256.602 102.897V113.516H245.074V102.897H256.602ZM244.176 102.897V113.516H232.199V102.897H244.176ZM231.301 102.897V113.516H219.324V102.897H231.301ZM258.398 102.897H269.926V113.516H258.398V102.897ZM269.926 101.103H258.398V90.4839H269.926V101.103ZM270.824 101.103V90.4839H282.801V101.103H270.824ZM283.699 101.103V90.4839H295.676V101.103H283.699ZM296.574 101.103V90.4839H308.102V101.103H296.574ZM270.824 102.897V113.516H282.801V102.897H270.824ZM283.699 102.897V113.516H295.676V102.897H283.699ZM296.574 102.897V113.516H308.102V102.897H296.574ZM218.426 101.103H206.898V90.4839H218.426V101.103ZM206.898 39.0352H218.426V50.5513H206.898V39.0352ZM206.898 38.1378H218.426V26.173H206.898V38.1378ZM219.324 50.5513V39.0352H231.301V50.5513H219.324ZM219.324 38.1378H231.301V26.173H219.324V38.1378ZM232.199 50.5513V39.0352H244.176V50.5513H232.199ZM232.199 38.1378H244.176V26.173H232.199V38.1378ZM245.074 50.5513V39.0352H256.602V50.5513H245.074ZM245.074 38.1378H256.602V26.173H245.074V38.1378ZM256.602 13.3109V25.2757H245.074V13.3109H256.602ZM244.176 13.3109V25.2757H232.199V13.3109H244.176ZM231.301 13.3109V25.2757H219.324V13.3109H231.301ZM206.898 25.2757H218.426V13.3109H206.898V25.2757ZM206.898 12.4135H218.426V0.897361H206.898V12.4135ZM231.301 12.4135H219.324V0.897361H231.301V12.4135ZM232.199 12.4135V0.897361H244.176V12.4135H232.199ZM245.074 12.4135V0.897361H256.602V12.4135H245.074ZM218.426 89.5865H206.898V77.6217H218.426V89.5865ZM231.301 89.5865H219.324V77.6217H231.301V89.5865ZM244.176 89.5865H232.199V77.6217H244.176V89.5865ZM256.602 89.5865H245.074V77.6217H256.602V89.5865ZM256.602 76.7243V64.7595H245.074V76.7243H256.602ZM244.176 76.7243V64.7595H232.199V76.7243H244.176ZM231.301 76.7243V64.7595H219.324V76.7243H231.301ZM218.426 76.7243H206.898V64.7595H218.426V76.7243ZM218.426 63.8622H206.898V52.346H218.426V63.8622ZM219.324 63.8622H231.301V52.346H219.324V63.8622ZM232.199 52.346V63.8622H244.176V52.346H232.199ZM245.074 52.346V63.8622H256.602V52.346H245.074ZM269.926 89.5865H258.398V77.6217H269.926V89.5865ZM282.801 89.5865H270.824V77.6217H282.801V89.5865ZM295.676 89.5865H283.699V77.6217H295.676V89.5865ZM308.102 89.5865H296.574V77.6217H308.102V89.5865ZM308.102 76.7243V64.7595H296.574V76.7243H308.102ZM295.676 76.7243V64.7595H283.699V76.7243H295.676ZM282.801 76.7243V64.7595H270.824V76.7243H282.801ZM269.926 76.7243H258.398V64.7595H269.926V76.7243ZM269.926 63.8622H258.398V52.346H269.926V63.8622ZM270.824 63.8622H282.801V52.346H270.824V63.8622ZM283.699 52.346V63.8622H295.676V52.346H283.699ZM296.574 52.346V63.8622H308.102V52.346H296.574ZM269.926 39.0352H258.398V50.5513H269.926V39.0352ZM269.926 38.1378H258.398V26.173H269.926V38.1378ZM270.824 39.0352V50.5513H282.801V39.0352H270.824ZM282.801 38.1378H270.824V26.173H282.801V38.1378ZM283.699 39.0352V50.5513H295.676V39.0352H283.699ZM295.676 38.1378H283.699V26.173H295.676V38.1378ZM296.574 39.0352V50.5513H308.102V39.0352H296.574ZM308.102 38.1378H296.574V26.173H308.102V38.1378ZM308.102 25.2757V13.3109H296.574V25.2757H308.102ZM295.676 25.2757V13.3109H283.699V25.2757H295.676ZM282.801 25.2757V13.3109H270.824V25.2757H282.801ZM269.926 25.2757H258.398V13.3109H269.926V25.2757ZM269.926 12.4135H258.398V0.897361H269.926V12.4135ZM270.824 12.4135H282.801V0.897361H270.824V12.4135ZM283.699 0.897361V12.4135H295.676V0.897361H283.699ZM296.574 0.897361V12.4135H308.102V0.897361H296.574ZM218.426 140.138H206.898V151.654H218.426V140.138ZM218.426 139.24H206.898V127.276H218.426V139.24ZM219.324 140.138V151.654H231.301V140.138H219.324ZM231.301 139.24H219.324V127.276H231.301V139.24ZM232.199 140.138V151.654H244.176V140.138H232.199ZM244.176 139.24H232.199V127.276H244.176V139.24ZM245.074 140.138V151.654H256.602V140.138H245.074ZM256.602 139.24H245.074V127.276H256.602V139.24ZM256.602 126.378V114.413H245.074V126.378H256.602ZM244.176 126.378V114.413H232.199V126.378H244.176ZM231.301 126.378V114.413H219.324V126.378H231.301ZM218.426 126.378H206.898V114.413H218.426V126.378ZM206.898 191.587H218.426V203.103H206.898V191.587ZM206.898 190.689H218.426V178.724H206.898V190.689ZM219.324 203.103V191.587H231.301V203.103H219.324ZM219.324 190.689H231.301V178.724H219.324V190.689ZM232.199 203.103V191.587H244.176V203.103H232.199ZM232.199 190.689H244.176V178.724H232.199V190.689ZM245.074 203.103V191.587H256.602V203.103H245.074ZM245.074 190.689H256.602V178.724H245.074V190.689ZM256.602 165.862V177.827H245.074V165.862H256.602ZM244.176 165.862V177.827H232.199V165.862H244.176ZM231.301 165.862V177.827H219.324V165.862H231.301ZM206.898 177.827H218.426V165.862H206.898V177.827ZM206.898 164.965H218.426V153.449H206.898V164.965ZM231.301 164.965H219.324V153.449H231.301V164.965ZM232.199 164.965V153.449H244.176V164.965H232.199ZM245.074 164.965V153.449H256.602V164.965H245.074ZM258.398 191.587H269.926V203.103H258.398V191.587ZM258.398 190.689H269.926V178.724H258.398V190.689ZM270.824 203.103V191.587H282.801V203.103H270.824ZM270.824 190.689H282.801V178.724H270.824V190.689ZM283.699 203.103V191.587H295.676V203.103H283.699ZM283.699 190.689H295.676V178.724H283.699V190.689ZM296.574 203.103V191.587H308.102V203.103H296.574ZM296.574 190.689H308.102V178.724H296.574V190.689ZM308.102 165.862V177.827H296.574V165.862H308.102ZM295.676 165.862V177.827H283.699V165.862H295.676ZM282.801 165.862V177.827H270.824V165.862H282.801ZM258.398 177.827H269.926V165.862H258.398V177.827ZM258.398 164.965H269.926V153.449H258.398V164.965ZM282.801 164.965H270.824V153.449H282.801V164.965ZM283.699 164.965V153.449H295.676V164.965H283.699ZM296.574 164.965V153.449H308.102V164.965H296.574ZM258.398 140.138H269.926V151.654H258.398V140.138ZM258.398 139.24H269.926V127.276H258.398V139.24ZM270.824 151.654V140.138H282.801V151.654H270.824ZM270.824 139.24H282.801V127.276H270.824V139.24ZM283.699 151.654V140.138H295.676V151.654H283.699ZM283.699 139.24H295.676V127.276H283.699V139.24ZM296.574 151.654V140.138H308.102V151.654H296.574ZM296.574 139.24H308.102V127.276H296.574V139.24ZM308.102 114.413V126.378H296.574V114.413H308.102ZM295.676 114.413V126.378H283.699V114.413H295.676ZM282.801 114.413V126.378H270.824V114.413H282.801ZM258.398 126.378H269.926V114.413H258.398V126.378ZM321.426 140.138H309.898V151.654H321.426V140.138ZM321.426 139.24H309.898V127.276H321.426V139.24ZM322.324 140.138V151.654H334.301V140.138H322.324ZM334.301 139.24H322.324V127.276H334.301V139.24ZM335.199 140.138V151.654H347.176V140.138H335.199ZM347.176 139.24H335.199V127.276H347.176V139.24ZM348.074 140.138V151.654H359.602V140.138H348.074ZM359.602 139.24H348.074V127.276H359.602V139.24ZM359.602 126.378V114.413H348.074V126.378H359.602ZM347.176 126.378V114.413H335.199V126.378H347.176ZM334.301 126.378V114.413H322.324V126.378H334.301ZM321.426 126.378H309.898V114.413H321.426V126.378ZM309.898 191.587H321.426V203.103H309.898V191.587ZM309.898 190.689H321.426V178.724H309.898V190.689ZM322.324 203.103V191.587H334.301V203.103H322.324ZM322.324 190.689H334.301V178.724H322.324V190.689ZM335.199 203.103V191.587H347.176V203.103H335.199ZM335.199 190.689H347.176V178.724H335.199V190.689ZM348.074 203.103V191.587H359.602V203.103H348.074ZM348.074 190.689H359.602V178.724H348.074V190.689ZM359.602 165.862V177.827H348.074V165.862H359.602ZM347.176 165.862V177.827H335.199V165.862H347.176ZM334.301 165.862V177.827H322.324V165.862H334.301ZM309.898 177.827H321.426V165.862H309.898V177.827ZM309.898 164.965H321.426V153.449H309.898V164.965ZM334.301 164.965H322.324V153.449H334.301V164.965ZM335.199 164.965V153.449H347.176V164.965H335.199ZM348.074 164.965V153.449H359.602V164.965H348.074ZM361.398 191.587H372.926V203.103H361.398V191.587ZM361.398 190.689H372.926V178.724H361.398V190.689ZM373.824 203.103V191.587H385.801V203.103H373.824ZM373.824 190.689H385.801V178.724H373.824V190.689ZM386.699 203.103V191.587H398.676V203.103H386.699ZM386.699 190.689H398.676V178.724H386.699V190.689ZM399.574 203.103V191.587H411.102V203.103H399.574ZM399.574 190.689H411.102V178.724H399.574V190.689ZM411.102 165.862V177.827H399.574V165.862H411.102ZM398.676 165.862V177.827H386.699V165.862H398.676ZM385.801 165.862V177.827H373.824V165.862H385.801ZM361.398 177.827H372.926V165.862H361.398V177.827ZM361.398 164.965H372.926V153.449H361.398V164.965ZM385.801 164.965H373.824V153.449H385.801V164.965ZM386.699 164.965V153.449H398.676V164.965H386.699ZM399.574 164.965V153.449H411.102V164.965H399.574ZM361.398 140.138H372.926V151.654H361.398V140.138ZM361.398 139.24H372.926V127.276H361.398V139.24ZM373.824 151.654V140.138H385.801V151.654H373.824ZM373.824 139.24H385.801V127.276H373.824V139.24ZM386.699 151.654V140.138H398.676V151.654H386.699ZM386.699 139.24H398.676V127.276H386.699V139.24ZM399.574 151.654V140.138H411.102V151.654H399.574ZM399.574 139.24H411.102V127.276H399.574V139.24ZM411.102 114.413V126.378H399.574V114.413H411.102ZM398.676 114.413V126.378H386.699V114.413H398.676ZM385.801 114.413V126.378H373.824V114.413H385.801ZM361.398 126.378H372.926V114.413H361.398V126.378ZM321.426 39.0352H309.898V50.5513H321.426V39.0352ZM321.426 38.1378H309.898V26.173H321.426V38.1378ZM322.324 39.0352V50.5513H334.301V39.0352H322.324ZM334.301 38.1378H322.324V26.173H334.301V38.1378ZM335.199 39.0352V50.5513H347.176V39.0352H335.199ZM347.176 38.1378H335.199V26.173H347.176V38.1378ZM348.074 39.0352V50.5513H359.602V39.0352H348.074ZM359.602 38.1378H348.074V26.173H359.602V38.1378ZM359.602 25.2757V13.3109H348.074V25.2757H359.602ZM347.176 25.2757V13.3109H335.199V25.2757H347.176ZM334.301 25.2757V13.3109H322.324V25.2757H334.301ZM321.426 25.2757H309.898V13.3109H321.426V25.2757ZM321.426 12.4135H309.898V0.897361H321.426V12.4135ZM322.324 12.4135H334.301V0.897361H322.324V12.4135ZM335.199 0.897361V12.4135H347.176V0.897361H335.199ZM348.074 0.897361V12.4135H359.602V0.897361H348.074ZM309.898 89.5865H321.426V77.6217H309.898V89.5865ZM322.324 89.5865H334.301V77.6217H322.324V89.5865ZM335.199 89.5865H347.176V77.6217H335.199V89.5865ZM348.074 89.5865H359.602V77.6217H348.074V89.5865ZM359.602 64.7595V76.7243H348.074V64.7595H359.602ZM347.176 64.7595V76.7243H335.199V64.7595H347.176ZM334.301 64.7595V76.7243H322.324V64.7595H334.301ZM309.898 76.7243H321.426V64.7595H309.898V76.7243ZM309.898 63.8622H321.426V52.346H309.898V63.8622ZM334.301 63.8622H322.324V52.346H334.301V63.8622ZM335.199 63.8622V52.346H347.176V63.8622H335.199ZM348.074 63.8622V52.346H359.602V63.8622H348.074ZM361.398 89.5865H372.926V77.6217H361.398V89.5865ZM373.824 89.5865H385.801V77.6217H373.824V89.5865ZM386.699 89.5865H398.676V77.6217H386.699V89.5865ZM399.574 89.5865H411.102V77.6217H399.574V89.5865ZM411.102 64.7595V76.7243H399.574V64.7595H411.102ZM398.676 64.7595V76.7243H386.699V64.7595H398.676ZM385.801 64.7595V76.7243H373.824V64.7595H385.801ZM361.398 76.7243H372.926V64.7595H361.398V76.7243ZM361.398 63.8622H372.926V52.346H361.398V63.8622ZM385.801 63.8622H373.824V52.346H385.801V63.8622ZM386.699 63.8622V52.346H398.676V63.8622H386.699ZM399.574 63.8622V52.346H411.102V63.8622H399.574ZM361.398 39.0352H372.926V50.5513H361.398V39.0352ZM361.398 38.1378H372.926V26.173H361.398V38.1378ZM373.824 50.5513V39.0352H385.801V50.5513H373.824ZM373.824 38.1378H385.801V26.173H373.824V38.1378ZM386.699 50.5513V39.0352H398.676V50.5513H386.699ZM386.699 38.1378H398.676V26.173H386.699V38.1378ZM399.574 50.5513V39.0352H411.102V50.5513H399.574ZM399.574 38.1378H411.102V26.173H399.574V38.1378ZM411.102 13.3109V25.2757H399.574V13.3109H411.102ZM398.676 13.3109V25.2757H386.699V13.3109H398.676ZM385.801 13.3109V25.2757H373.824V13.3109H385.801ZM361.398 25.2757H372.926V13.3109H361.398V25.2757ZM361.398 12.4135H372.926V0.897361H361.398V12.4135ZM385.801 12.4135H373.824V0.897361H385.801V12.4135ZM386.699 12.4135V0.897361H398.676V12.4135H386.699ZM399.574 12.4135V0.897361H411.102V12.4135H399.574Z" fill="white" fill-opacity="0.06"/>
</svg>
