<?xml version="1.0" encoding="UTF-8" standalone="no"?>
<!-- Created with Inkscape (http://www.inkscape.org/) -->

<svg
   width="81.512566mm"
   height="78.887878mm"
   viewBox="0 0 81.512566 78.887879"
   version="1.1"
   id="svg1"
   xml:space="preserve"
   xmlns:inkscape="http://www.inkscape.org/namespaces/inkscape"
   xmlns:sodipodi="http://sodipodi.sourceforge.net/DTD/sodipodi-0.dtd"
   xmlns="http://www.w3.org/2000/svg"
   xmlns:svg="http://www.w3.org/2000/svg"><sodipodi:namedview
     id="namedview1"
     pagecolor="#ffffff"
     bordercolor="#000000"
     borderopacity="0.25"
     inkscape:showpageshadow="2"
     inkscape:pageopacity="0.0"
     inkscape:pagecheckerboard="0"
     inkscape:deskcolor="#d1d1d1"
     inkscape:document-units="mm"><inkscape:page
       x="9.0828862e-06"
       y="-3.1708471e-06"
       width="81.512566"
       height="78.887878"
       id="page3"
       margin="0"
       bleed="0" /></sodipodi:namedview><defs
     id="defs1" /><g
     id="layer-oc6"
     inkscape:groupmode="layer"
     inkscape:label="PDF_PDF3_Geometria"
     transform="matrix(0.26458332,0,0,0.26458334,342.6153,-80.64879)"><path
       id="path65"
       d="m -1183.2045,602.45374 0.96,-6.88 0.48,-29.12 -2.56,-14.72 -7.04,-13.92 -11.84,-14.08 -15.2,-8.15999 -11.36,-2.08 -12.96,-0.48 -27.36,3.52 -18.72,5.11999 -5.6,1.28"
       style="fill:none;stroke:#ffffff;stroke-width:0.21968;stroke-linecap:round;stroke-linejoin:round;stroke-miterlimit:10;stroke-dasharray:none;stroke-opacity:1" /><path
       id="path66"
       d="m -1182.2445,595.57374 8.8,-6.56 10.4,-9.6 4.64,-7.36 4.16,-15.52 2.56,-5.92 7.52,-8 3.36,-4.64 1.28,-3.52 0.16,-4.64 -1.28,-5.76 -1.12,-6.23999 -0.16,-6.24 1.28,-5.28 6.08,-13.44 0.96,-5.76 -0.64,-5.92 -2.56,-12.32 -2.72,-13.6 v -3.84 l 0.64,-4.64 9.44,-25.92 2.72,-10.08 0.16,-5.44 -1.76,-7.52 -4.16,-12.31999 -0.32,-3.04 0.48,-3.04 5.6,-16 2.72,-5.28 5.6,-8.64 20.16,-28.16 6.4,-8.8 3.2,-3.36 4.32,-3.84"
       style="fill:none;stroke:#ffffff;stroke-width:0.21968;stroke-linecap:round;stroke-linejoin:round;stroke-miterlimit:10;stroke-dasharray:none;stroke-opacity:1" /><path
       id="path67"
       d="m -987.36446,560.21374 -1.12,0.96 -1.92,3.84 -3.36,11.52 -1.76,8.8 v 6.24 l 2.08,5.28 3.04,2.56 3.04,1.12"
       style="fill:none;stroke:#ffffff;stroke-width:0.23896;stroke-linecap:round;stroke-linejoin:round;stroke-miterlimit:10;stroke-dasharray:none;stroke-opacity:1" /><path
       id="path68"
       d="m -987.36446,545.01374 -8.48,10.4 -3.84,7.04 -2.08004,7.84 -4.96,13.76 -2.08,7.52 -0.32,2.08 v 8.16 l 0.32,0.64"
       style="fill:none;stroke:#ffffff;stroke-width:0.23896;stroke-linecap:round;stroke-linejoin:round;stroke-miterlimit:10;stroke-dasharray:none;stroke-opacity:1" /><path
       id="path69"
       d="m -987.36446,525.97374 -6.08,12.8 -8.64004,12.48 -2.56,4.64 -5.28,15.68 -6.72,14.88 -2.88,9.6 -0.8,6.4"
       style="fill:none;stroke:#ffffff;stroke-width:0.23896;stroke-linecap:round;stroke-linejoin:round;stroke-miterlimit:10;stroke-dasharray:none;stroke-opacity:1" /><path
       id="path70"
       d="m -987.36446,507.89375 -2.24,6.08 -9.6,20.63999 -6.56004,10.08 -4.64,8.64 -7.04,19.04 -4.64,8.8 -3.68,8.64 -2.4,7.84 -0.96,4.8"
       style="fill:none;stroke:#ffffff;stroke-width:0.23896;stroke-linecap:round;stroke-linejoin:round;stroke-miterlimit:10;stroke-dasharray:none;stroke-opacity:1" /><path
       id="path71"
       d="m -987.36446,489.49375 -15.20004,37.75999 -8.64,14.08 -2.88,5.76 -9.12,23.2 -8.32,16.16 -4.16,11.2 -0.8,4.8"
       style="fill:none;stroke:#ffffff;stroke-width:0.23896;stroke-linecap:round;stroke-linejoin:round;stroke-miterlimit:10;stroke-dasharray:none;stroke-opacity:1" /><path
       id="path72"
       d="m -987.36446,456.05375 -1.92,18.4 -4.96,15.84 -4.48,10.4 -7.04004,19.51999 -3.84,7.36 -3.68,5.44 -4.96,9.12 -9.12,23.2 -10.88,21.12 -3.2,8.32 -2.08,7.68"
       style="fill:none;stroke:#ffffff;stroke-width:0.23896;stroke-linecap:round;stroke-linejoin:round;stroke-miterlimit:10;stroke-dasharray:none;stroke-opacity:1" /><path
       id="path73"
       d="m -987.36446,405.65375 -2.72,6.56 -3.36,14.56 -0.32,33.28 -1.28,10.72 -2.56,10.4 -14.08004,37.28 -3.2,6.71999 -7.52,12.32 -9.6,24.16 -12.48,24.8 -5.28,16"
       style="fill:none;stroke:#ffffff;stroke-width:0.23896;stroke-linecap:round;stroke-linejoin:round;stroke-miterlimit:10;stroke-dasharray:none;stroke-opacity:1" /><path
       id="path74"
       d="m -987.36446,390.77375 -4.32,5.76 -3.84,7.04 -2.4,7.04 -2.08004,8.64 -1.28,10.88 0.8,23.68 0.48,0.32 -0.48,9.6 -0.8,6.24 -2.4,10.72 -4.16,12 -8.8,22.08 -9.92,18.23999 -10.4,26.08 -14.56,29.92 -4.48,13.44"
       style="fill:none;stroke:#ffffff;stroke-width:0.23896;stroke-linecap:round;stroke-linejoin:round;stroke-miterlimit:10;stroke-dasharray:none;stroke-opacity:1" /><path
       id="path75"
       d="m -1068.0045,602.45374 4.96,-4.8 2.88,-4 14.08,-27.84 4.64,-9.92 11.52,-29.6 8.32,-15.19999 9.6,-23.68 3.68,-13.28 1.6,-12.96 -0.32,-14.08 -1.28,-9.92 v -16.96 l 1.28,-8.32 2.4,-8.32 4.96004,-9.92 5.12,-7.03999 7.2,-7.52"
       style="fill:none;stroke:#ffffff;stroke-width:0.23896;stroke-linecap:round;stroke-linejoin:round;stroke-miterlimit:10;stroke-dasharray:none;stroke-opacity:1" /><path
       id="path76"
       d="m -987.36446,368.21376 -9.28,8.32 -8.00004,8.8 -3.68,5.75999 -3.36,6.72 -2.4,7.04 -1.76,9.12 v 15.68 l 2.08,17.92 0.48,14.88 -1.6,13.28 -3.36,11.2 -7.04,16.96 -9.12,17.91999 -2.56,7.52 -11.2,27.68 -9.6,19.52 -5.76,7.52 -8.64,4.96 -3.04,2.88 -2.4,4.64 -2.08,5.92"
       style="fill:none;stroke:#ffffff;stroke-width:0.23896;stroke-linecap:round;stroke-linejoin:round;stroke-miterlimit:10;stroke-dasharray:none;stroke-opacity:1" /><path
       id="path77"
       d="m -987.36446,357.49376 -7.2,6.72 -8.00004,6.08 -7.36,7.52 -4.64,6.24 -3.68,7.03999 -3.36,10.4 -1.6,11.2 v 10.4 l 3.2,31.52 -0.32,13.28 -2.56,12.8 -7.04,17.92 -8.32,15.36 -7.36,21.91999 -6.72,16.16 -8.32,17.92 -3.36,4.96 -1.92,2.08 -3.04,2.08 -7.04,3.36 -2.88,2.4 -3.36,5.44 -3.68,12.16"
       style="fill:none;stroke:#ffffff;stroke-width:0.23896;stroke-linecap:round;stroke-linejoin:round;stroke-miterlimit:10;stroke-dasharray:none;stroke-opacity:1" /><path
       id="path78"
       d="m -987.36446,345.33376 -11.84,11.36 -9.92004,7.84 -5.44,5.44 -7.52,9.44 -4.16,8.32 -2.4,8.79999 -1.6,13.6 v 12.96 l 3.2,28.64 v 12.8 l -2.08,13.28 -6.24,16.64 -8.64,16.64 -8.32,25.59999 -13.28,29.92 -2.4,3.68 -2.56,2.56 -9.6,4.96 -4.96,4.96 -3.36,7.04 -3.68,12.64"
       style="fill:none;stroke:#ffffff;stroke-width:0.23896;stroke-linecap:round;stroke-linejoin:round;stroke-miterlimit:10;stroke-dasharray:none;stroke-opacity:1" /><path
       id="path79"
       d="m -987.36446,331.73376 -8.96,9.6 -16.96004,14.08 -4.96,4.96 -9.92,13.28 -4.64,9.12 -3.36,11.99999 -1.28,12.16 0.48,22.72 2.56,20 v 16.96 l -2.56,12.48 -4.48,12 -5.44,9.6 -2.56,5.76 -7.04,23.67999 -8.64,21.12 -3.84,7.52 -3.68,5.76 -3.36,2.88 -7.36,3.84 -2.56,1.92 -2.88,3.84 -2.56,4.48 -3.68,9.12 -3.36,11.84"
       style="fill:none;stroke:#ffffff;stroke-width:0.23896;stroke-linecap:round;stroke-linejoin:round;stroke-miterlimit:10;stroke-dasharray:none;stroke-opacity:1" /><path
       id="path80"
       d="m -987.36446,312.53376 -5.6,10.56 -3.68,4.96 -4.64004,4.48 -16.64,13.76 -7.84,8.32 -6.56,9.12 -6.24,11.68 -4.16,12.32 -1.76,10.07999 -0.32,17.76 0.32,0.48 0.96,20.64 1.6,13.28 v 15.04 l -2.56,12.32 -2.88,8.32 -7.84,15.36 -6.24,23.19999 -6.24,17.12 -2.88,5.44 -3.36,4.48 -3.2,2.88 -6.72,3.84 -4.16,4.48 -10.72,21.6 -3.36,8.64 -2.56,9.76"
       style="fill:none;stroke:#ffffff;stroke-width:0.23896;stroke-linecap:round;stroke-linejoin:round;stroke-miterlimit:10;stroke-dasharray:none;stroke-opacity:1" /><path
       id="path81"
       d="m -995.20446,305.33376 -3.52,7.36 -5.44004,7.04 -12,10.4 -12,12 -5.92,6.72 -9.12,14.08 -4.16,8.64 -3.68,13.76 -1.6,13.27999 v 16.16 l 0.32,0.32 1.28,25.44 1.28,9.92 v 12.8 l -2.08,10.4 -2.88,8.32 -7.2,14.56 -5.76,23.99999 -2.88,9.12 -3.36,6.24 -3.2,3.36 -7.52,4.16 -2.88,2.88 -2.56,3.68 -15.36,34.56 -3.36,9.44 -1.92,8.48"
       style="fill:none;stroke:#ffffff;stroke-width:0.23896;stroke-linecap:round;stroke-linejoin:round;stroke-miterlimit:10;stroke-dasharray:none;stroke-opacity:1" /><path
       id="path82"
       d="m -1010.2445,305.33376 -4.64,6.08 -8.32,8.32 -18.24,21.12 -10.4,15.36 -5.92,11.2 -2.88,10.88 -1.28,11.19999 0.48,35.2 0.48,0.48 v 5.28 l 1.12,9.12 0.48,13.76 0.48,0.48 -0.48,10.24 -1.6,8.32 -8,18.72 -2.88,11.2 -1.6,10.4 -3.36,10.71999 -2.08,3.36 -2.88,2.88 -8.32,5.44 -2.88,3.68 -2.88,5.92 -7.84,20.64 -7.52,17.12 -3.68,10.72 -2.08,9.28"
       style="fill:none;stroke:#ffffff;stroke-width:0.23896;stroke-linecap:round;stroke-linejoin:round;stroke-miterlimit:10;stroke-dasharray:none;stroke-opacity:1" /><path
       id="path83"
       d="m -1121.1245,396.05375 0.32,5.92 1.76,3.68 3.2,2.88 h 2.88 l 1.28,-0.8 2.56,-3.84 0.8,-2.88 v -4.48 l -1.6,-4.64 -2.56,-2.08 h -3.68 l -3.84,2.88 -1.12,3.36"
       style="fill:none;stroke:#ffffff;stroke-width:0.23896;stroke-linecap:round;stroke-linejoin:round;stroke-miterlimit:10;stroke-dasharray:none;stroke-opacity:1" /><path
       id="path84"
       d="m -1030.5645,305.33376 -11.36,16.48 -14.88,14.08 -7.52,7.84 -6.24,11.2 -1.6,5.12 -3.84,20.32 -0.32,17.75999 0.32,0.48 v 6.24 l 2.08,13.6 0.48,15.36 2.88,20 v 7.36 l -0.8,4.96 -6.24,20.48 -3.36,19.04 -2.08,8.32 -2.4,4.96 -3.04,2.87999 -4,2.4 -3.36,3.04 -4.16,7.36 -7.52,21.6 -12.48,31.2 -4,15.04"
       style="fill:none;stroke:#ffffff;stroke-width:0.23896;stroke-linecap:round;stroke-linejoin:round;stroke-miterlimit:10;stroke-dasharray:none;stroke-opacity:1" /><path
       id="path85"
       d="m -1144.4845,419.73375 0.96,-2.56 2.08,-1.6 2.4,1.6 0.48,4.64 -2.08,3.36 -2.08,0.32 -0.8,-0.8 -0.96,-2.08 v -2.88"
       style="fill:none;stroke:#ffffff;stroke-width:0.23896;stroke-linecap:round;stroke-linejoin:round;stroke-miterlimit:10;stroke-dasharray:none;stroke-opacity:1" /><path
       id="path86"
       d="m -1164.3245,547.89374 0.48,1.28 1.6,1.28 h 2.88 l 2.08,-1.76 v -1.6 l -1.6,-1.6 h -3.04 l -2.4,2.4"
       style="fill:none;stroke:#ffffff;stroke-width:0.23896;stroke-linecap:round;stroke-linejoin:round;stroke-miterlimit:10;stroke-dasharray:none;stroke-opacity:1" /><path
       id="path87"
       d="m -1238.5645,305.33376 6.24,3.2 8.64,2.88 h 4.96 l 2.56,-1.28 2.4,-2.4 1.6,-2.4"
       style="fill:none;stroke:#ffffff;stroke-width:0.23896;stroke-linecap:round;stroke-linejoin:round;stroke-miterlimit:10;stroke-dasharray:none;stroke-opacity:1" /><path
       id="path88"
       d="m -1241.4445,421.81375 v 6.56 l 2.08,6.72 2.88,2.88 2.4,1.28 h 2.88 l 1.76,-0.8 1.6,-2.88 v -5.44 l -1.6,-6.24 -1.76,-2.88 -3.68,-2.88 -2.88,-0.48 -1.28,0.48 -1.6,1.6 -0.8,2.08"
       style="fill:none;stroke:#ffffff;stroke-width:0.23896;stroke-linecap:round;stroke-linejoin:round;stroke-miterlimit:10;stroke-dasharray:none;stroke-opacity:1" /><path
       id="path89"
       d="m -1252.4845,305.33376 5.6,4.8 10.72,7.2 10.4,5.76 8.32,2.4 5.76,-0.32 4.64,-2.56 3.68,-5.76 3.2,-11.52"
       style="fill:none;stroke:#ffffff;stroke-width:0.23896;stroke-linecap:round;stroke-linejoin:round;stroke-miterlimit:10;stroke-dasharray:none;stroke-opacity:1" /><path
       id="path90"
       d="m -1258.8845,409.01375 v 5.28 l 3.68,18.72 2.08,5.44 4.16,4.48 10.4,5.92 8.32,2.4 h 7.04 l 3.2,-1.28 3.04,-2.4 2.08,-3.36 1.12,-4.64 v -10.24 l -2.08,-8.8 -2.08,-5.44 -2.08,-3.2 -2.4,-2.56 -13.76,-7.36 -5.76,-1.76 -6.56,0.48 -6.24,2.4 -3.04,2.88 -1.12,3.04"
       style="fill:none;stroke:#ffffff;stroke-width:0.23896;stroke-linecap:round;stroke-linejoin:round;stroke-miterlimit:10;stroke-dasharray:none;stroke-opacity:1" /><path
       id="path91"
       d="m -1265.2845,305.33376 9.6,10.72 6.24,5.28 16.16,10.88 6.24,2.88 8.32,1.6 h 7.84 l 4.64,-0.8 4.64,-2.08 3.68,-3.68 4.48,-9.6 1.76,-9.44 1.92,-5.76"
       style="fill:none;stroke:#ffffff;stroke-width:0.23896;stroke-linecap:round;stroke-linejoin:round;stroke-miterlimit:10;stroke-dasharray:none;stroke-opacity:1" /><path
       id="path92"
       d="m -1154.4045,602.45374 4.64,-16.8 10.4,-19.04 5.28,-15.36 2.88,-14.56 v -5.76 l -1.6,-6.72 -2.56,-4 -3.68,-4.15999 -3.68,-3.04 -3.36,-1.6 -7.84,-2.08 -5.44,-0.32 -7.84,-1.76 -6.24,-2.88 -3.36,-2.56 -8.32,-8.16 -3.68,-5.44 -2.88,-8.32 -3.36,-14.56 -0.48,-29.76 0.48,-0.48 v -6.72 l -0.48,-0.32 -0.32,-10.4 -2.08,-8.32 -3.68,-7.04 -7.2,-6.24 -5.28,-2.88 -3.84,-1.28 -16.16,-1.6 h -5.28 l -5.12,0.8 -11.2,4.16 -6.08,3.68 -4.64,4.96 -1.28,3.84 0.48,9.12 4.16,21.92 3.2,6.24 8.32,8.8 2.08,4.96 -2.08,17.44 -2.08,6.24 v 4.16 l 1.28,1.6 2.08,1.28 14.88,3.68 16.64,3.36 11.68,0.8 6.56,1.28 8.8,3.68 2.88,2.08 4.16,4.64 2.4,4.48 2.08,5.76 1.28,7.99999 -0.32,6.56 -2.56,11.2 v 5.76 l 2.56,11.68 0.32,4.64 -1.28,8.16 -2.4,9.28 -0.48,17.92"
       style="fill:none;stroke:#ffffff;stroke-width:0.23896;stroke-linecap:round;stroke-linejoin:round;stroke-miterlimit:10;stroke-dasharray:none;stroke-opacity:1" /><path
       id="path93"
       d="m -1279.6845,305.33376 v 0.32 l 11.68,11.68 4.96,5.76 4.48,4.48 5.92,4.64 9.44,6.56 7.52,4.16 10.4,3.84 6.56,1.12 6.72,-0.8 4.48,-1.6 8,-1.76 3.68,-1.6 2.08,-1.6 2.08,-2.88 9.44,-22.4 4.16,-3.84 3.04,-0.8 5.28,-0.48 1.76,-0.8 4.64,-4"
       style="fill:none;stroke:#ffffff;stroke-width:0.23896;stroke-linecap:round;stroke-linejoin:round;stroke-miterlimit:10;stroke-dasharray:none;stroke-opacity:1" /><path
       id="path94"
       d="m -1201.2845,602.45374 v -32.48 l 1.28,-9.92 v -18.72 l -0.8,-4.96 -2.88,-6.24 -6.72,-7.04 -5.44,-3.83999 -6.56,-3.2 -8.8,-3.04 -10.72,-1.92 -12,0.32 -21.12,7.04 -19.36,2.55999"
       style="fill:none;stroke:#ffffff;stroke-width:0.23896;stroke-linecap:round;stroke-linejoin:round;stroke-miterlimit:10;stroke-dasharray:none;stroke-opacity:1" /><path
       id="path95"
       d="m -1139.8445,602.45374 2.4,-12.64 11.36,-26.88 5.76,-19.52 3.68,-18.72 v -7.03999 l -1.6,-9.92 -2.88,-7.52 -5.44,-5.44 -10.4,-5.28 -17.76,-6.24 -5.44,-2.56 -7.04,-4.96 -4.16,-4.48 -3.36,-5.12 -4.48,-10.72 -2.56,-11.2 v -9.6 l 1.28,-8.64 v -7.84 l 0.32,-0.48 -0.8,-16.16 -2.08,-7.84 -1.6,-3.36 -4.96,-5.75999 -6.72,-3.04 -20.32,-3.68 -7.84,-0.8 -17.92,-0.8 -5.28,0.8 -5.44,2.4 -9.92,10.87999 -4.16,2.88 -4.64,4.64 -2.08,4.96 -0.32,14.4 1.6,12.48 0.48,11.2 2.88,10.08 -0.48,6.56 -2.4,4.16 -2.56,2.4 -5.76,4.16 -7.04,3.84 -6.88,1.6"
       style="fill:none;stroke:#ffffff;stroke-width:0.23896;stroke-linecap:round;stroke-linejoin:round;stroke-miterlimit:10;stroke-dasharray:none;stroke-opacity:1" /><path
       id="path96"
       d="m -1216.1645,602.45374 -0.48,-38.72 -0.8,-6.72 -2.08,-8.32 -2.88,-8.16 -3.68,-6.24 -3.84,-3.84 -4.96,-2.88 -3.68,-1.28 -4.96,-0.8 h -6.24 l -9.6,1.76 -12.48,3.2 -15.68,2.08 -6.88,2.56"
       style="fill:none;stroke:#ffffff;stroke-width:0.23896;stroke-linecap:round;stroke-linejoin:round;stroke-miterlimit:10;stroke-dasharray:none;stroke-opacity:1" /><path
       id="path97"
       d="m -1131.2045,602.45374 0.96,-5.6 2.08,-7.36 12.8,-32.8 8.32,-27.36 4.48,-24.15999 1.28,-13.6 2.08,-4.64 6.72,-5.76 2.88,-4.16 2.4,-8.8 v -5.76 l -2.08,-5.76 -3.2,-3.84 -4.16,-2.4 -7.52,-2.08 h -5.44 l -2.4,0.8 -15.84,9.12 -9.92,4.96 -4.64,1.28 h -5.76 l -4.16,-1.28 -4.48,-2.88 -3.04,-2.88 -3.68,-4.96 -2.88,-5.76 -1.6,-7.2 v -4.96 l 2.4,-14.08 1.28,-11.52 4.48,-16.64 0.48,-4.95999 -0.48,-2.88 -2.08,-4.64 -7.36,-8.32 -4.96,-9.12 -4.64,-4.96 -2.4,-1.28 h -3.84 l -2.4,0.8 -5.44,3.36 -6.24,5.44 -3.36,1.6 -4.16,0.8 h -5.76 l -7.04,-0.8 -22.88,-4.96 -11.52,-1.6 -6.72,-0.48 -3.2,0.48 -3.04,1.28 -2.88,2.88 -1.28,2.4 -2.88,10.88 -5.76,9.91999 -1.28,4.48 0.48,37.76 -3.36,17.92 -2.4,4.16 -2.08,1.6 -6.08,2.08"
       style="fill:none;stroke:#ffffff;stroke-width:0.23896;stroke-linecap:round;stroke-linejoin:round;stroke-miterlimit:10;stroke-dasharray:none;stroke-opacity:1" /><path
       id="path98"
       d="m -1294.4045,316.85376 17.6,11.68 13.76,12 7.84,4.96 7.52,3.68 23.68,7.84 4,0.96 h 8.8 l 4.48,-1.28 7.2,-3.68 5.28,-2.08 7.52,-4.64 4.16,-4.16 4.48,-10.4 2.56,-2.4 2.88,-1.28 h 6.24 l 2.88,0.8 6.72,3.36 h 4.48 l 11.2,-5.44 11.68,-2.08 h 7.84 l 7.52,2.08 4.96,-0.32 2.08,-1.28 7.36,-8.32 6.08,-11.52"
       style="fill:none;stroke:#ffffff;stroke-width:0.23896;stroke-linecap:round;stroke-linejoin:round;stroke-miterlimit:10;stroke-dasharray:none;stroke-opacity:1" /><path
       id="path99"
       d="m -1228.6445,602.45374 -0.8,-9.28 -1.76,-8.32 -0.32,-6.56 -1.76,-10.08 -4.96,-14.88 -2.88,-5.76 -2.88,-3.36 -4.96,-1.6 h -5.44 l -11.52,1.12 h -9.6 l -5.76,-0.8 h -5.92 l -7.2,1.76"
       style="fill:none;stroke:#ffffff;stroke-width:0.23896;stroke-linecap:round;stroke-linejoin:round;stroke-miterlimit:10;stroke-dasharray:none;stroke-opacity:1" /><path
       id="path100"
       d="m -1294.4045,435.89375 2.72,-2.08 2.4,-4.16 1.28,-4.48 0.48,-8.32 0.32,-0.48 -0.32,-12.8 -4.96,-21.59999 v -4.16 l 1.6,-7.84 v -5.44 l -3.52,-15.68"
       style="fill:none;stroke:#ffffff;stroke-width:0.23896;stroke-linecap:round;stroke-linejoin:round;stroke-miterlimit:10;stroke-dasharray:none;stroke-opacity:1" /><path
       id="path101"
       d="m -1241.6045,602.45374 -1.92,-10.08 -6.72,-21.6 -3.36,-5.76 -2.08,-2.08 -4.48,-2.56 -2.88,-0.8 -13.76,-1.28 -11.2,-2.88 -6.4,-0.48"
       style="fill:none;stroke:#ffffff;stroke-width:0.23896;stroke-linecap:round;stroke-linejoin:round;stroke-miterlimit:10;stroke-dasharray:none;stroke-opacity:1" /><path
       id="path102"
       d="m -1255.6845,602.45374 -1.6,-1.76 -6.24,-3.84 -4.48,-4.48 -3.36,-5.92 -2.88,-7.84 -3.36,-3.68 -8.32,-4.64 -8.48,-2.4"
       style="fill:none;stroke:#ffffff;stroke-width:0.23896;stroke-linecap:round;stroke-linejoin:round;stroke-miterlimit:10;stroke-dasharray:none;stroke-opacity:1" /></g></svg>
